; NON-PLATED HOLES START AT T1
; THROUGH (PLATED) HOLES START AT T100
M48
INCH
T100C0.039370
T101C0.030000
T102C0.038000
T103C0.035000
%
T100
X006332Y011788
X004406Y011794
T101
X005355Y001912
X005355Y000910
X002813Y000878
X002813Y001880
T102
X012556Y005775
X012556Y006775
T103
X003501Y004200
X011047Y002600
X003501Y007200
X007047Y002600
X006501Y007200
X009572Y006121
X002406Y009044
X005501Y007200
X005501Y004200
X006406Y009044
X000717Y004566
X004501Y004200
X000717Y007566
X006501Y004200
X009572Y005121
X004501Y007200
T00
M30
